<?xml version="1.0" standalone="no"?>
<!DOCTYPE svg PUBLIC "-//W3C//DTD SVG 20010904//EN"
 "http://www.w3.org/TR/2001/REC-SVG-20010904/DTD/svg10.dtd">
<svg version="1.0" xmlns="http://www.w3.org/2000/svg"
 width="16.000000pt" height="16.000000pt" viewBox="0 0 16.000000 16.000000"
 preserveAspectRatio="xMidYMid meet">
<metadata>
Created by potrace 1.11, written by Peter Selinger 2001-2013
</metadata>
<g transform="translate(0.000000,16.000000) scale(0.006400,-0.006400)"
fill="#000000" stroke="none">
<path d="M798 2100 c-20 -12 -53 -69 -128 -218 -94 -189 -126 -261 -249 -567
-69 -170 -134 -316 -158 -353 -23 -35 -60 -109 -84 -164 -26 -62 -51 -105 -65
-115 -15 -9 -24 -25 -24 -41 0 -14 -21 -61 -47 -105 -39 -67 -45 -83 -37 -105
13 -37 57 -51 92 -30 29 18 46 47 147 258 49 104 208 411 220 428 3 3 49 9
130 16 33 3 87 9 120 12 64 7 74 8 175 19 36 4 68 9 73 12 7 4 23 -30 31 -70
28 -135 97 -420 105 -436 16 -29 66 -61 105 -68 29 -4 35 -2 41 16 8 25 1 55
-61 290 -24 90 -48 191 -54 225 -6 33 -27 129 -47 211 -42 181 -41 175 -53
255 -20 134 -114 444 -153 501 -24 36 -51 46 -79 29z m45 -335 c14 -41 44
-167 63 -260 14 -69 18 -107 19 -160 0 -54 -2 -61 -25 -72 -14 -6 -52 -14 -85
-18 -33 -4 -71 -8 -85 -10 -57 -8 -200 -17 -200 -12 0 15 75 199 130 317 96
207 145 290 161 273 3 -5 14 -30 22 -58z"/>
<path d="M2095 2050 c-12 -4 -27 -15 -34 -24 -8 -9 -31 -19 -53 -22 -36 -6
-57 -19 -141 -87 -19 -15 -43 -29 -53 -31 -68 -14 -198 -99 -262 -171 -142
-162 -223 -392 -217 -615 4 -171 57 -335 155 -483 74 -111 149 -178 229 -205
32 -11 219 -10 251 2 8 3 34 10 57 16 27 7 44 18 48 30 4 12 19 22 41 26 99
18 254 294 328 585 42 164 50 227 51 394 0 156 -7 214 -40 312 -43 128 -118
223 -203 259 -43 18 -128 26 -157 14z m124 -210 c28 -11 32 -16 78 -100 48
-88 83 -185 83 -232 0 -24 -7 -70 -15 -104 -8 -34 -16 -72 -19 -85 -3 -13 -7
-33 -10 -44 -3 -11 -18 -85 -35 -165 -34 -168 -43 -192 -117 -311 -116 -188
-205 -253 -341 -251 -142 3 -274 179 -338 452 -12 49 -13 153 -2 205 3 11 8
42 12 69 27 186 135 377 260 462 113 76 368 136 444 104z"/>
</g>
</svg>
