<svg xmlns="http://www.w3.org/2000/svg" viewBox="0 0 107.6 107.6"><path d="M53.8 0C24.1 0 0 24.1 0 53.8c0 29.7 24.1 53.8 53.8 53.8 29.7 0 53.8-24.1 53.8-53.8C107.6 24.1 83.5 0 53.8 0zm0 103.6C26.3 103.6 4 81.2 4 53.8S26.4 4 53.8 4s49.8 22.4 49.8 49.8-22.3 49.8-49.8 49.8z" class="st1"/><path d="M82.6 27.2L15.8 55.8c-.8.3-1.3 1.1-1.2 2 .1.9.7 1.6 1.5 1.8l27.6 7c.3.2.7.3 1 .3h.1l10.6 2.7-10.1 10.8c-.8.8-.7 2.1.1 2.8.4.4.9.5 1.4.5.5 0 1.1-.2 1.5-.6l11.6-12.4 15.9 4.1c.2 0 .3.1.5.1.4 0 .8-.1 1.1-.3.5-.3.8-.8.9-1.4l7.1-43.8c.1-.7-.2-1.4-.7-1.9-.5-.5-1.4-.6-2.1-.3zm-8 43.2L49 63.8 69.9 46c.8-.7.9-2 .2-2.8-.7-.8-2-.9-2.8-.2l-23 19.6-21.5-5.5 58-24.9-6.2 38.2z" class="st1"/><path d="M46.5 83.6c-1 0-1.9-.8-2-1.8l-1.6-17c-.1-1.1.7-2.1 1.8-2.2 1.1-.1 2.1.7 2.2 1.8l1.6 17c.1 1.1-.7 2.1-1.8 2.2h-.2z" class="st1"/></svg>