<svg xmlns="http://www.w3.org/2000/svg" viewBox="0 0 107.6 107.6"><path fill="#1d1d1b" d="M53.8 0C24.1 0 0 24.1 0 53.8c0 29.7 24.1 53.8 53.8 53.8 29.7 0 53.8-24.1 53.8-53.8C107.6 24.1 83.5 0 53.8 0zm8.1 102.6c-5.1.9-10.3 1-15.6.1-.8-2.9-1.2-6.2-1.2-9.5 0-8.3 2.5-15.7 6.3-18.5.7-.5 1-1.4.7-2.2-.3-.8-1-1.4-1.9-1.4h-5.3c-9.8 0-17.8-8-17.8-17.8v-.6c0-3.6 1.1-7 3.1-10 .2-.3.3-.7.3-1.1l.1-11.3 6.2 3.7c1.2.7 2.4.5 4.7.3 2.3-.3 5.8-.7 11.8-.7 6.4 0 10.2.6 12.5.9 2.1.3 3.2.5 4.3-.2l6.8-4 .1 12.3c0 .4.1.7.3 1 1.7 2.8 2.5 5.9 2.5 9.1v.6c0 9.8-8 17.8-17.8 17.8h-4.1c-.9 0-1.6.6-1.9 1.4-.3.8 0 1.7.7 2.2 3.8 2.8 6.3 10.2 6.3 18.5.1 3.3-.3 6.6-1.1 9.4zm4.3-.5c.6-2.8.9-5.8.9-8.8 0-7.2-1.7-13.7-4.6-18.1 11.8-.2 21.4-9.9 21.4-21.8v-.6c0-3.7-1-7.4-2.8-10.7L81 26.9c0-.7-.4-1.4-1-1.7-.6-.4-1.4-.3-2 0l-9.6 5.6c-.4 0-1.1-.1-1.9-.2-2.4-.3-6.4-.9-13.1-.9-6.2 0-10 .4-12.2.7-1 .1-2 .2-2.3.2l-9.1-5.4c-.6-.4-1.4-.4-2 0-.6.4-1 1-1 1.7l-.1 14.2c-2.2 3.5-3.4 7.5-3.4 11.7v.6c0 12 9.8 21.8 21.8 21.8h.8c-1.2 1.7-2.1 3.9-2.9 6.2-3.4 1.7-6.5 2.1-8.9 1.3-1.9-.7-3.3-2.3-4.3-4.6-3.6-9-8.8-8.9-9.4-8.9-1.1.1-1.9 1-1.9 2.1.1 1.1 1 1.9 2.1 1.9 0 0 3 .2 5.4 6.4 1.4 3.4 3.6 5.8 6.6 6.9 1.3.5 2.6.7 4 .7 1.6 0 3.3-.3 5.1-.9-.4 2.2-.6 4.6-.6 7.1 0 3.1.3 6.2 1 9C20.2 97.1 3.9 77.4 3.9 54c0-27.5 22.4-49.8 49.8-49.8 27.5 0 49.8 22.4 49.8 49.8.1 23-15.8 42.5-37.3 48.1z" class="st1"/></svg>