<svg xmlns="http://www.w3.org/2000/svg" viewBox="0 0 101.67147 107.6"><path fill="#1d1d1b" d="M78.6 6l-1.2-.6c-.1-.1-.3-.1-.5-.2C69.7 1.8 61.8 0 53.8 0 24.1 0 0 24.1 0 53.8c0 29.7 24.1 53.8 53.8 53.8 6.1 0 12.1-1 17.9-3 1-.4 1.6-1.5 1.2-2.6-.4-1-1.5-1.6-2.6-1.2-5.3 1.9-10.9 2.8-16.5 2.8C26.3 103.6 4 81.2 4 53.8S26.4 4 53.8 4c7.9 0 15.8 1.9 22.8 5.5 19.9 10.7 21.8 28.3 21.1 37.9-1 13.8-8.5 27.3-16.8 30.1-4.5 1.5-8.5 1.2-11.4-.9-2.2-1.7-3.6-4.3-3.5-7 .1-2.8.5-6.9.8-9.4l3.9-28.3c.2-1.1-.6-2.1-1.7-2.3-1.1-.2-2.1.6-2.3 1.7L66 36c-2.2-3.4-5.7-6-10-6.7-8.1-1.4-15.2.8-20.3 6.4-6.5 7.1-9.1 18.1-6.6 27.9 2 7.6 6.8 13.2 13.3 15.3 2.1.7 4.3 1.1 6.3 1.1 3.1 0 5.9-.8 8.4-2.3 1.6-1 3.5-2.6 5.1-5.1.7 2.8 2.3 5.4 4.7 7.2 2.4 1.8 5.2 2.7 8.4 2.7 2.1 0 4.3-.4 6.7-1.2 9.8-3.4 18.4-18.1 19.5-33.6 1.5-17.9-6.9-33-22.9-41.7zM64.4 46c-.9 5.5-2.1 13-2.8 17.3-.8 5.2-3 9-6.3 11-3.2 1.9-7.2 2.2-11.4.9-5.2-1.7-9-6.1-10.7-12.5-2.2-8.5 0-18 5.6-24.1 3.4-3.7 7.6-5.6 12.7-5.6 1.3 0 2.6.1 4 .4 5.9 1 9.9 6.6 8.9 12.6z" class="st1"/></svg>