<svg xmlns="http://www.w3.org/2000/svg" viewBox="0 0 189.473 189.473"><path d="M152.531 179.476c-1.48 0-2.95-.438-4.211-1.293l-47.641-32.316-25.552 18.386c-2.004 1.441-4.587 1.804-6.914.972-2.324-.834-4.089-2.759-4.719-5.146l-12.83-48.622L4.821 93.928C1.935 92.824.021 90.063 0 86.973c-.021-3.09 1.855-5.877 4.727-7.02l174.312-69.36c.791-.336 1.628-.53 2.472-.582.302-.018.605-.018.906-.001 1.748.104 3.465.816 4.805 2.13.139.136.271.275.396.42 1.11 1.268 1.72 2.814 1.835 4.389.028.396.026.797-.009 1.198-.024.286-.065.571-.123.854L159.898 173.38c-.473 2.48-2.161 4.556-4.493 5.523-.925.384-1.902.573-2.874.573zm-47.669-48.897l42.437 28.785L170.193 39.24l-82.687 79.566 17.156 11.638c.069.043.135.089.2.135zm-35.327-6.401l5.682 21.53 12.242-8.809-16.03-10.874c-.745-.504-1.383-1.132-1.894-1.847zM28.136 86.782l31.478 12.035c2.255.862 3.957 2.758 4.573 5.092l3.992 15.129c.183-1.745.974-3.387 2.259-4.624L149.227 38.6 28.136 86.782z"/></svg>